<?xml version="1.0" encoding="iso-8859-1"?>
<!-- Uploaded to: SVG Repo, www.svgrepo.com, Generator: SVG Repo Mixer Tools -->
<svg version="1.1" id="Layer_1" xmlns="http://www.w3.org/2000/svg" xmlns:xlink="http://www.w3.org/1999/xlink" 
	 viewBox="0 0 512 512" xml:space="preserve">
<path style="fill:#C3C6C8;" d="M419.897,40.979H124.958c-6.947,0-12.579,5.632-12.579,12.579v442.117c0,4.528,3.671,8.2,8.2,8.2
	h303.698c4.528,0,8.199-3.671,8.199-8.2V53.558C432.477,46.612,426.845,40.979,419.897,40.979z"/>
<path style="fill:#6DABE4;" d="M432.477,103.155H112.379V53.558c0-6.947,5.632-12.579,12.579-12.579h294.94
	c6.947,0,12.579,5.632,12.579,12.579v49.597H432.477z"/>
<rect x="171.221" y="40.979" style="fill:#586069;" width="16.25" height="62.173"/>
<path style="opacity:0.15;enable-background:new    ;" d="M142.103,476.884c-4.528,0-8.199-3.67-8.199-8.2V40.979h-8.946
	c-6.947,0-12.579,5.632-12.579,12.579v442.117c0,4.528,3.671,8.2,8.2,8.2h303.698c4.528,0,8.2-3.671,8.2-8.2v-18.792H142.103z"/>
<rect x="357.381" y="40.979" style="fill:#586069;" width="16.25" height="62.173"/>
<rect x="225.247" y="415.047" style="fill:#6DABE4;" width="94.358" height="88.833"/>
<path style="fill:#FFB547;" d="M232.033,252.025h-64.389c-6.148,0-11.132-4.984-11.132-11.132v-31.267
	c0-6.148,4.984-11.132,11.132-11.132h64.389c6.148,0,11.132,4.984,11.132,11.132v31.267
	C243.165,247.04,238.181,252.025,232.033,252.025z"/>
<g>
	<path style="fill:#6DABE4;" d="M312.823,252.025h64.389c6.148,0,11.132-4.984,11.132-11.132v-31.267
		c0-6.148-4.984-11.132-11.132-11.132h-64.389c-6.148,0-11.132,4.984-11.132,11.132v31.267
		C301.69,247.04,306.675,252.025,312.823,252.025z"/>
	<path style="fill:#6DABE4;" d="M232.033,345.464h-64.389c-6.148,0-11.132-4.984-11.132-11.132v-31.267
		c0-6.148,4.984-11.132,11.132-11.132h64.389c6.148,0,11.132,4.984,11.132,11.132v31.267
		C243.165,340.48,238.181,345.464,232.033,345.464z"/>
	<path style="fill:#6DABE4;" d="M312.823,345.464h64.389c6.148,0,11.132-4.984,11.132-11.132v-31.267
		c0-6.148-4.984-11.132-11.132-11.132h-64.389c-6.148,0-11.132,4.984-11.132,11.132v31.267
		C301.69,340.48,306.675,345.464,312.823,345.464z"/>
</g>
<g style="opacity:0.2;">
	<rect x="164.363" y="371.443" width="27.083" height="16.25"/>
	<rect x="259.524" y="346.006" width="27.083" height="16.25"/>
	<rect x="141.343" y="416.055" width="27.083" height="16.25"/>
	<rect x="375.527" y="392.947" width="27.083" height="16.25"/>
	<rect x="356.839" y="430.116" width="27.083" height="16.25"/>
	<rect x="145.232" y="144.062" width="27.083" height="16.25"/>
	<rect x="377.152" y="125.721" width="27.083" height="16.25"/>
	<rect x="338.509" y="153.888" width="27.083" height="16.25"/>
</g>
<path style="fill:#FF6361;" d="M332.6,415.042c1.996,0,3.546-1.746,3.311-3.727c-2.711-22.835-30.097-40.776-63.483-40.776
	s-60.773,17.941-63.483,40.776c-0.235,1.981,1.315,3.727,3.311,3.727H332.6z"/>
<path style="opacity:0.15;enable-background:new    ;" d="M335.911,411.315c-0.242-2.035-0.687-4.028-1.308-5.976h-106.78
	c-1.995,0-3.546-1.745-3.311-3.727c1.083-9.129,6.121-17.472,13.9-24.204c-16.428,7.262-27.773,19.627-29.468,33.907
	c-0.235,1.981,1.315,3.727,3.311,3.727h120.345C334.595,415.042,336.146,413.296,335.911,411.315z"/>
<g>
	<path style="fill:#4C9462;" d="M204.267,503.875c0-20.614-16.712-37.325-37.325-37.325s-37.325,16.712-37.325,37.325H204.267z"/>
	<path style="fill:#4C9462;" d="M340.588,503.875c0-20.614,16.712-37.325,37.325-37.325c20.614,0,37.325,16.712,37.325,37.325
		H340.588z"/>
</g>
<path style="opacity:0.15;enable-background:new    ;" d="M282.742,78.711v25.688c0,2.517-2.04,4.558-4.558,4.558h-23.07
	c-2.517,0-4.558-2.04-4.558-4.558V78.711c0-2.517-2.04-4.557-4.556-4.557h-20.566c-2.517,0-4.558,2.04-4.558,4.557v90.17
	c0,2.517,2.04,4.557,4.558,4.557H246c2.517,0,4.556-2.04,4.556-4.557v-25.688c0-2.517,2.04-4.558,4.558-4.558h23.07
	c2.517,0,4.558,2.04,4.558,4.558v25.688c0,2.517,2.04,4.557,4.558,4.557h20.566c2.517,0,4.558-2.04,4.558-4.557v-90.17
	c0-2.517-2.04-4.557-4.558-4.557h-20.566C284.783,74.154,282.742,76.194,282.742,78.711z"/>
<path style="fill:#333E48;" d="M288.52,72.978v25.688c0,2.517-2.04,4.558-4.558,4.558h-23.07c-2.517,0-4.558-2.04-4.558-4.558
	V72.978c0-2.517-2.04-4.558-4.556-4.558h-20.566c-2.517,0-4.557,2.04-4.557,4.558v90.17c0,2.517,2.04,4.557,4.557,4.557h20.566
	c2.517,0,4.556-2.04,4.556-4.557V137.46c0-2.517,2.04-4.558,4.558-4.558h23.07c2.517,0,4.558,2.04,4.558,4.558v25.688
	c0,2.517,2.04,4.557,4.558,4.557h20.566c2.517,0,4.558-2.04,4.558-4.557v-90.17c0-2.517-2.04-4.558-4.558-4.558h-20.566
	C290.56,68.42,288.52,70.46,288.52,72.978z"/>
<path style="fill:#1E252B;" d="M419.898,32.854H152.546C148.767,14.138,132.194,0,112.379,0C89.782,0,71.399,18.383,71.399,40.979
	v423.809c0,4.487,3.638,8.125,8.125,8.125c4.487,0,8.125-3.638,8.125-8.125V337.085h16.604v158.591
	c0,9.001,7.323,16.324,16.325,16.324h303.699c9.001,0,16.324-7.323,16.324-16.324V53.558
	C440.601,42.142,431.313,32.854,419.898,32.854z M104.254,320.835H87.649v-40.367h16.604
	C104.254,280.468,104.254,320.835,104.254,320.835z M104.254,264.218H87.649v-75.68h16.604
	C104.254,188.538,104.254,264.218,104.254,264.218z M104.254,172.289H87.649v-40.367h16.604
	C104.254,131.922,104.254,172.289,104.254,172.289z M104.254,53.558v62.113H87.649V40.979c0-13.636,11.093-24.729,24.729-24.729
	c10.79,0,19.983,6.949,23.352,16.604h-10.773C113.541,32.854,104.254,42.142,104.254,53.558z M138.92,495.681
	c3.551-12.124,14.765-21.006,28.022-21.006c13.261,0,24.479,8.889,28.026,21.019L138.92,495.681z M311.48,495.723l-78.105-0.02
	v-72.537h78.105V495.723z M218.27,406.917c5.741-16.214,28.116-28.253,54.158-28.253c26.041,0,48.416,12.04,54.157,28.253H218.27z
	 M349.877,495.732c3.535-12.15,14.762-21.057,28.037-21.057c13.28,0,24.509,8.914,28.04,21.071L349.877,495.732z M424.277,495.75
	h-1.655c-3.844-21.197-22.422-37.325-44.708-37.325c-22.28,0-40.853,16.118-44.705,37.303l-5.48-0.001v-72.56h4.87
	c3.271,0,6.393-1.403,8.566-3.849s3.199-5.712,2.813-8.961c-3.243-27.331-34.005-47.943-71.551-47.943
	c-37.547,0-68.307,20.61-71.552,47.942c-0.386,3.249,0.639,6.514,2.812,8.961c2.173,2.446,5.295,3.85,8.566,3.85h4.871V495.7
	l-5.484-0.001c-3.864-21.171-22.43-37.273-44.699-37.273c-22.261,0-40.823,16.092-44.695,37.252h-1.743V53.558
	c0-2.456,1.998-4.454,4.454-4.454h294.94c2.456,0,4.452,1.998,4.452,4.454L424.277,495.75z M232.033,190.368h-64.389
	c-10.619,0-19.257,8.639-19.257,19.257v31.267c0,10.619,8.64,19.257,19.257,19.257h64.389c10.619,0,19.257-8.64,19.257-19.257
	v-31.267C251.29,199.006,242.652,190.368,232.033,190.368z M235.04,240.891c0,1.659-1.349,3.007-3.007,3.007h-64.389
	c-1.659,0-3.007-1.35-3.007-3.007v-31.267c0-1.659,1.35-3.007,3.007-3.007h64.389c1.659,0,3.007,1.349,3.007,3.007V240.891z
	 M232.033,283.808h-64.389c-10.619,0-19.257,8.64-19.257,19.257v31.267c0,10.619,8.64,19.257,19.257,19.257h64.389
	c10.619,0,19.257-8.639,19.257-19.257v-31.267C251.29,292.447,242.652,283.808,232.033,283.808z M235.04,334.332
	c0,1.659-1.349,3.007-3.007,3.007h-64.389c-1.659,0-3.007-1.349-3.007-3.007v-31.267c0-1.659,1.35-3.007,3.007-3.007h64.389
	c1.659,0,3.007,1.35,3.007,3.007V334.332z M377.213,283.808h-64.389c-10.619,0-19.256,8.64-19.256,19.257v31.267
	c0,10.619,8.639,19.257,19.256,19.257h64.389c10.619,0,19.257-8.639,19.257-19.257v-31.267
	C396.47,292.447,387.83,283.808,377.213,283.808z M380.22,334.332c0,1.659-1.349,3.007-3.007,3.007h-64.389
	c-1.658,0-3.006-1.349-3.006-3.007v-31.267c0-1.659,1.349-3.007,3.006-3.007h64.389c1.659,0,3.007,1.35,3.007,3.007V334.332z
	 M377.213,190.368h-64.389c-10.619,0-19.256,8.639-19.256,19.257v31.267c0,10.619,8.639,19.257,19.256,19.257h64.389
	c10.619,0,19.257-8.64,19.257-19.257v-31.267C396.47,199.006,387.83,190.368,377.213,190.368z M380.22,240.891
	c0,1.659-1.349,3.007-3.007,3.007h-64.389c-1.658,0-3.006-1.35-3.006-3.007v-31.267c0-1.659,1.349-3.007,3.006-3.007h64.389
	c1.659,0,3.007,1.349,3.007,3.007V240.891z"/>
</svg>