<?xml version="1.0" encoding="UTF-8"?>
<svg version="1.1" xmlns="http://www.w3.org/2000/svg" width="500" height="500">
<path d="M0 0 C0.91339645 -0.00974854 1.82679291 -0.01949707 2.76786804 -0.02954102 C22.92259484 -0.2003465 42.43503561 -0.03488933 62.2265625 4.23828125 C63.13535156 4.43083496 64.04414063 4.62338867 64.98046875 4.82177734 C105.61434221 13.67162206 144.30604064 32.93129996 174.953125 61.1484375 C177.07286462 63.0969954 179.23139719 64.98585458 181.4140625 66.86328125 C187.90767006 72.55168147 193.50185083 78.62806502 198.91015625 85.36328125 C200.40151628 87.21427785 201.91317996 89.04918974 203.44921875 90.86328125 C223.04828375 114.09180273 237.16920248 142.35681737 246.2265625 171.23828125 C246.46213867 171.98110352 246.69771484 172.72392578 246.94042969 173.48925781 C252.71248673 191.99112969 256.29242835 211.6100567 256.46484375 231.01171875 C256.47459229 231.9251152 256.48434082 232.83851166 256.49438477 233.77958679 C256.66519025 253.93431359 256.49973308 273.44675436 252.2265625 293.23828125 C251.93773193 294.60146484 251.93773193 294.60146484 251.64306641 295.9921875 C242.79322169 336.62606096 223.53354379 375.31775939 195.31640625 405.96484375 C193.36784835 408.08458337 191.47898917 410.24311594 189.6015625 412.42578125 C183.91316228 418.91938881 177.83677873 424.51356958 171.1015625 429.921875 C169.2505659 431.41323503 167.41565401 432.92489871 165.6015625 434.4609375 C142.37304102 454.0600025 114.10802638 468.18092123 85.2265625 477.23828125 C84.48374023 477.47385742 83.74091797 477.70943359 82.97558594 477.95214844 C64.47371406 483.72420548 44.85478705 487.3041471 25.453125 487.4765625 C24.53972855 487.48631104 23.62633209 487.49605957 22.68525696 487.50610352 C2.53053016 487.676909 -16.98191061 487.51145183 -36.7734375 483.23828125 C-37.68222656 483.04572754 -38.59101563 482.85317383 -39.52734375 482.65478516 C-80.16121721 473.80494044 -118.85291564 454.54526254 -149.5 426.328125 C-151.61973962 424.3795671 -153.77827219 422.49070792 -155.9609375 420.61328125 C-162.45454506 414.92488103 -168.04872583 408.84849748 -173.45703125 402.11328125 C-174.94839128 400.26228465 -176.46005496 398.42737276 -177.99609375 396.61328125 C-197.59515875 373.38475977 -211.71607748 345.11974513 -220.7734375 316.23828125 C-221.00901367 315.49545898 -221.24458984 314.75263672 -221.48730469 313.98730469 C-227.25936173 295.48543281 -230.83930335 275.8665058 -231.01171875 256.46484375 C-231.02146729 255.5514473 -231.03121582 254.63805084 -231.04125977 253.69697571 C-231.21206525 233.54224891 -231.04660808 214.02980814 -226.7734375 194.23828125 C-226.58088379 193.32949219 -226.38833008 192.42070312 -226.18994141 191.484375 C-217.34009669 150.85050154 -198.08041879 112.15880311 -169.86328125 81.51171875 C-167.91472335 79.39197913 -166.02586417 77.23344656 -164.1484375 75.05078125 C-158.46003728 68.55717369 -152.38365373 62.96299292 -145.6484375 57.5546875 C-143.7974409 56.06332747 -141.96252901 54.55166379 -140.1484375 53.015625 C-116.91991602 33.41656 -88.65490138 19.29564127 -59.7734375 10.23828125 C-59.03061523 10.00270508 -58.28779297 9.76712891 -57.52246094 9.52441406 C-39.02058906 3.75235702 -19.40166205 0.1724154 0 0 Z " fill="#DD6E42" transform="translate(237.7734375,6.76171875)"/>
<path d="M0 0 C74.91 0 149.82 0 227 0 C227 15.84 227 31.68 227 48 C199.28 48 171.56 48 143 48 C143 123.9 143 199.8 143 278 C123.53 278 104.06 278 84 278 C84 202.1 84 126.2 84 48 C56.28 48 28.56 48 0 48 C0 32.16 0 16.32 0 0 Z " fill="#FEFDFD" transform="translate(137,122)"/>
</svg>
