<?xml version="1.0" encoding="iso-8859-1"?>
<!-- Uploaded to: SVG Repo, www.svgrepo.com, Generator: SVG Repo Mixer Tools -->
<svg height="800px" width="800px" version="1.1" id="Layer_1" xmlns="http://www.w3.org/2000/svg" xmlns:xlink="http://www.w3.org/1999/xlink" 
	 viewBox="0 0 512 512" xml:space="preserve">
<path style="fill:#333E48;" d="M229.322,140.475L122.384,82.952c-1.869-1.005-4.119-1.005-5.988,0L11.382,139.44
	c-2.048,1.102-3.326,3.24-3.326,5.566v319.939c0,4.781,5.103,7.831,9.314,5.566l99.026-53.266c1.87-1.005,4.119-1.005,5.988,0
	l106.938,57.523c0.92,0.495,1.949,0.754,2.993,0.754h265.31c3.491,0,6.32-2.83,6.32-6.32V147.549c0-3.491-2.829-6.32-6.32-6.32
	h-265.31C231.271,141.229,230.242,140.97,229.322,140.475z"/>
<path style="fill:#77E0C1;" d="M230.395,173.273l-110.304-59.333c-0.438-0.235-0.966-0.235-1.404,0l-77.631,41.758
	c-0.48,0.259-0.78,0.759-0.78,1.305v266.484c0,1.12,1.196,1.836,2.184,1.305l76.228-41.004c0.438-0.235,0.966-0.235,1.404,0
	l110.304,59.333c0.216,0.116,0.456,0.177,0.701,0.177h239.146c0.818,0,1.481-0.664,1.481-1.481V174.932
	c0-0.818-0.664-1.481-1.481-1.481H231.097C230.852,173.451,230.611,173.39,230.395,173.273z"/>
<polygon style="fill:#FFFFFF;" points="471.724,265.898 406.044,331.579 306.188,331.579 306.188,173.451 273.967,173.451 
	273.967,331.579 230.723,331.579 191.167,309.526 191.167,199.628 119.389,161.018 40.277,203.573 40.277,240.161 119.389,197.605 
	158.946,218.883 158.946,291.562 119.389,269.509 40.277,312.064 40.277,348.652 119.389,306.096 230.723,363.8 373.822,363.8 
	294.323,443.299 339.891,443.299 412.716,370.473 471.724,429.481 471.724,383.913 435.5,347.69 471.724,311.466 "/>
<path style="fill:#FF6361;" d="M396.274,291.701c13.186,0,91.338-95.522,91.338-163.884c0-50.445-40.893-91.338-91.338-91.338
	s-91.338,40.893-91.338,91.338C304.936,196.18,383.088,291.701,396.274,291.701z"/>
<path style="opacity:0.15;enable-background:new    ;" d="M322.767,114.628c0-26.127,10.988-49.674,28.573-66.322
	c-27.699,15.688-46.405,45.407-46.405,79.512c0,68.362,78.152,163.884,91.338,163.884c2.982,0,9.293-4.898,17.264-13.249
	C398.843,275.96,322.767,182.078,322.767,114.628z"/>
<circle style="fill:#FFFFFF;" cx="396.271" cy="127.823" r="32.286"/>
<path style="opacity:0.2;enable-background:new    ;" d="M229.322,140.475L122.384,82.952c-0.934-0.503-1.964-0.754-2.994-0.754
	V416.49c1.03,0,2.059,0.251,2.994,0.754l106.938,57.523c0.446,0.24,0.916,0.421,1.402,0.548V141.022
	C230.238,140.896,229.767,140.715,229.322,140.475z"/>
<path style="fill:#1E252B;" d="M497.625,133.174h-2.117c0.093-1.793,0.159-3.58,0.159-5.355c0-54.806-44.588-99.394-99.394-99.394
	c-54.806,0-99.393,44.588-99.393,99.394c0,1.775,0.066,3.564,0.159,5.355h-64.286L126.199,75.858c-4.264-2.294-9.355-2.293-13.619,0
	L7.566,132.346C2.899,134.856,0,139.707,0,145.005v319.938c0,5.107,2.617,9.72,7.002,12.341c4.384,2.62,9.687,2.738,14.183,0.319
	l98.205-52.824l106.115,57.079c2.086,1.122,4.441,1.716,6.811,1.716h265.31c7.927,0,14.375-6.449,14.375-14.375V147.549
	C512,139.622,505.551,133.174,497.625,133.174z M396.274,44.536c45.922,0,83.283,37.361,83.283,83.283
	c0,36.048-23.35,78.033-37.268,99.851c-21.022,32.954-39.965,51.683-46.014,55.508c-6.049-3.825-24.992-22.554-46.014-55.508
	c-13.919-21.818-37.268-63.803-37.268-99.851C312.991,81.895,350.352,44.536,396.274,44.536z M338.917,239.802
	c10.093,15.447,21.309,30.131,31.582,41.348c17.044,18.608,23.162,18.608,25.775,18.608c2.612,0,8.73,0,25.775-18.608
	c10.273-11.216,21.49-25.901,31.582-41.348c3.036-4.647,6.472-10.142,10.037-16.272v211.714H232.752l-108.85-58.552
	c-2.827-1.518-6.202-1.518-9.032,0.002l-66.539,35.793V160.933l71.058-38.222l107.198,57.663c1.382,0.742,2.942,1.133,4.51,1.133
	h77.307C317.429,204.866,329.917,226.029,338.917,239.802z M495.889,467.466H232.753L126.199,410.15
	c-4.264-2.293-9.355-2.293-13.619,0l-96.469,51.891V146.043l103.279-55.554l106.115,57.079c2.086,1.122,4.441,1.716,6.811,1.716
	h66.686c1.003,5.384,2.326,10.772,3.9,16.111h-70.148l-108.85-58.551c-2.827-1.518-6.202-1.518-9.032,0.003l-77.633,41.759
	c-3.093,1.665-5.016,4.883-5.016,8.397v266.484c0,3.338,1.78,6.475,4.645,8.187c2.866,1.712,6.471,1.793,9.409,0.212l73.114-39.329
	l107.184,57.655c1.386,0.746,2.949,1.141,4.523,1.141h239.146c5.259,0,9.536-4.278,9.536-9.536V192.066
	c5.963-13.557,11.05-28.187,13.768-42.782h2.342L495.889,467.466L495.889,467.466z M396.274,168.164
	c22.247,0,40.346-18.099,40.346-40.346s-18.1-40.346-40.346-40.346c-22.247,0-40.346,18.099-40.346,40.346
	S374.027,168.164,396.274,168.164z M396.274,103.584c13.363,0,24.235,10.872,24.235,24.235c0,13.363-10.873,24.235-24.235,24.235
	s-24.235-10.872-24.235-24.235S382.911,103.584,396.274,103.584z"/>
</svg>